mtllib Floor.mtl
g mesh_1_unwrap_out
# vertices 6
# faceCount(triCount) 1
v 0.000000 0.000000 0.000000 
v 0.000000 0.000000 1.000000 
v 1.000000 0.000000 0.000000 
# vn
vn 0.000000 1.000000 0.000000 
vn 0.000000 1.000000 0.000000 
vn 0.000000 1.000000 0.000000 
# vt
vt 0.981937 0.019531 
vt 0.981937 0.706964 
vt 0.019531 0.019531 
usemtl Floor1
f 1/1/1 2/2/2 3/3/3

g mesh_2_unwrap_out
# faceCount(triCount) 1
v 1.000000 0.000000 1.000000 
v 1.000000 0.000000 0.000000 
v 0.000000 0.000000 1.000000 
# vn
vn 0.000000 1.000000 0.000000 
vn 0.000000 1.000000 0.000000 
vn 0.000000 1.000000 0.000000 
# vt
vt 0.019531 0.706964 
vt 0.019531 0.019531 
vt 0.981937 0.706964 
usemtl Floor2
f 4/4/4 5/5/5 6/6/6